<?xml version="1.0" standalone="no"?>
<!DOCTYPE svg PUBLIC "-//W3C//DTD SVG 20010904//EN"
 "http://www.w3.org/TR/2001/REC-SVG-20010904/DTD/svg10.dtd">
<svg version="1.0" xmlns="http://www.w3.org/2000/svg"
 width="260.000000pt" height="260.000000pt" viewBox="0 0 260.000000 260.000000"
 preserveAspectRatio="xMidYMid meet">
<metadata>
Created by potrace 1.11, written by Peter Selinger 2001-2013
</metadata>
<g transform="translate(0.000000,260.000000) scale(0.100000,-0.100000)"
fill="#000000" stroke="none">
<path d="M1185 2187 c-79 -20 -118 -23 -191 -15 -40 5 -64 1 -107 -16 -51 -21
-135 -81 -164 -116 -36 -43 -160 -318 -212 -466 -67 -195 -100 -274 -112 -274
-58 0 -166 -88 -200 -163 -49 -110 -2 -235 108 -287 39 -18 58 -21 106 -16
154 16 242 103 236 235 -3 70 -16 120 -37 144 -14 16 -14 19 -2 27 8 6 20 10
26 10 6 0 37 28 69 63 131 140 190 198 192 190 2 -5 -8 -36 -23 -69 -65 -146
-106 -278 -106 -344 -1 -61 -3 -67 -35 -98 -61 -59 -73 -100 -69 -237 2 -66 9
-144 17 -174 17 -69 72 -131 115 -131 37 0 74 25 74 50 0 26 54 60 170 109 79
33 235 81 315 97 11 2 43 8 70 14 162 33 226 38 563 41 225 1 280 7 340 35 44
20 44 32 5 173 -14 52 -39 120 -54 152 -16 32 -29 61 -29 65 0 17 -54 77 -90
99 -21 13 -50 45 -65 72 -15 26 -39 68 -53 93 -14 25 -53 92 -87 150 -35 58
-86 151 -115 207 -44 86 -65 114 -138 185 -100 95 -143 130 -192 155 -19 10
-41 24 -48 30 -32 30 -178 36 -277 10z"/>
</g>
</svg>
